<svg xmlns="http://www.w3.org/2000/svg" viewBox="0 0 380 110">
  <defs>
    <linearGradient id="ink2" x1="0%" y1="30%" x2="100%" y2="70%">
      <stop offset="0%" style="stop-color:#2c2c3a"/>
      <stop offset="100%" style="stop-color:#1a1a2e"/>
    </linearGradient>
    <filter id="bleed2" x="-3%" y="-3%" width="106%" height="106%">
      <feTurbulence type="fractalNoise" baseFrequency="0.035" numOctaves="3" result="noise"/>
      <feDisplacementMap in="SourceGraphic" in2="noise" scale="1.8" xChannelSelector="R" yChannelSelector="G"/>
    </filter>
    <filter id="tex2">
      <feTurbulence type="fractalNoise" baseFrequency="0.55" numOctaves="2" result="noise"/>
      <feColorMatrix type="saturate" values="0" in="noise" result="gn"/>
      <feComposite in="gn" in2="SourceGraphic" operator="in" result="clipped"/>
      <feBlend in="SourceGraphic" in2="clipped" mode="multiply"/>
    </filter>
  </defs>

  <g filter="url(#bleed2)">
    <!-- D -->
    <path d="M 18,22 Q 15,25 14,38 L 12,75 Q 11,88 14,93 L 17,95 Q 20,95 21,90 L 23,45 Q 23,30 20,24 Z"
          fill="url(#ink2)" filter="url(#tex2)"/>
    <path d="M 20,26 Q 24,21 34,19 Q 52,16 60,30 Q 68,45 66,60 Q 64,80 52,90 Q 40,98 22,95
             L 24,92 Q 38,93 48,84 Q 58,73 60,58 Q 62,42 54,33 Q 46,23 34,26 Q 28,27 24,30 Z"
          fill="url(#ink2)" filter="url(#tex2)"/>

    <!-- I -->
    <path d="M 78,20 Q 81,16 83,20 L 85,30 Q 86,45 85,60 L 83,80 Q 81,90 79,94 Q 76,96 75,92 L 74,80 Q 73,65 74,48 L 76,32 Z"
          fill="url(#ink2)" filter="url(#tex2)"/>
    <circle cx="80" cy="11" r="4" fill="url(#ink2)" opacity="0.85"/>

    <!-- I -->
    <path d="M 98,22 Q 101,18 103,22 L 104,34 Q 105,48 104,62 L 103,82 Q 102,92 100,95 Q 97,97 96,93 L 95,80 Q 94,66 95,50 L 96,34 Z"
          fill="url(#ink2)" filter="url(#tex2)"/>
    <circle cx="100" cy="12" r="3.5" fill="url(#ink2)" opacity="0.8" transform="rotate(15 100 12)"/>

    <!-- L -->
    <path d="M 120,20 Q 123,16 125,20 L 126,40 Q 127,55 126,72 L 125,88 Q 124,94 123,96
             Q 125,99 135,98 L 148,96 Q 153,95 152,98 Q 146,101 135,102 L 120,103 Q 116,102 115,98
             L 116,82 Q 115,58 116,38 Z"
          fill="url(#ink2)" filter="url(#tex2)"/>

    <!-- U -->
    <path d="M 162,22 Q 164,18 166,22 L 167,40 Q 168,55 167,68 L 165,82 Q 163,96 170,102 Q 178,106 186,100
             Q 192,92 193,78 L 194,60 Q 195,46 194,34 L 193,24 Q 194,20 196,22 L 197,36 Q 198,50 197,66
             L 196,82 Q 194,100 186,106 Q 176,110 168,106 Q 159,100 158,82 L 159,60 Q 160,42 161,28 Z"
          fill="url(#ink2)" filter="url(#tex2)"/>

    <!-- L -->
    <path d="M 212,20 Q 214,16 216,20 L 217,42 Q 217,58 216,74 L 215,88 Q 214,94 213,97
             Q 215,100 225,99 L 240,97 Q 245,96 244,99 Q 238,102 228,103 L 214,104 Q 209,103 208,99
             L 208,82 Q 207,58 208,38 Z"
          fill="url(#ink2)" filter="url(#tex2)"/>

    <!-- U -->
    <path d="M 254,22 Q 256,18 258,22 L 259,40 Q 260,55 259,70 L 257,84 Q 255,98 262,104 Q 270,108 278,102
             Q 284,94 285,80 L 286,62 Q 287,48 286,36 L 285,26 Q 286,22 288,24 L 289,38 Q 290,52 289,68
             L 288,84 Q 286,102 278,108 Q 268,113 260,108 Q 250,102 249,84 L 250,62 Q 251,44 252,28 Z"
          fill="url(#ink2)" filter="url(#tex2)"/>

  </g>
</svg>